<svg width="178" height="58" viewBox="0 0 178 58" fill="none" xmlns="http://www.w3.org/2000/svg">
<path d="M64.118 25.21C65.792 25.858 68.06 26.902 69.158 27.604L70.634 26.308C69.41 25.606 67.124 24.634 65.486 24.058L64.118 25.21ZM62.444 26.236V35.542H64.352V27.802H71.48V26.236H62.444ZM70.724 26.236V33.742C70.724 33.922 70.67 33.994 70.454 33.994C70.256 33.994 69.644 33.994 69.05 33.976C69.266 34.408 69.5 35.092 69.572 35.578C70.634 35.578 71.408 35.56 71.93 35.308C72.488 35.02 72.65 34.588 72.65 33.742V26.236H70.724ZM62.642 22.312V23.914H71.228V22.312H62.642ZM63.614 28.774V30.268H71.336V28.774H63.614ZM63.614 31.294V32.86H71.336V31.294H63.614ZM66.548 26.974V35.488H68.384V26.974H66.548ZM70.454 22.312V22.69C69.77 23.518 68.204 24.652 66.854 25.3C67.16 25.588 67.682 26.146 67.934 26.506C69.59 25.714 71.372 24.436 72.65 23.248L71.372 22.204L70.94 22.312H70.454ZM57.206 22.708C58.034 23.59 59.078 24.85 59.582 25.624L61.22 24.418C60.68 23.698 59.672 22.564 58.808 21.718L57.206 22.708ZM56.756 25.912V27.64H60.572V25.912H56.756ZM60.41 33.742L58.97 34.318C60.302 37.774 62.534 38.332 66.71 38.332C68.816 38.332 71.12 38.278 72.992 38.17C73.1 37.576 73.388 36.604 73.676 36.172C71.642 36.352 68.672 36.478 66.746 36.478C63.488 36.46 61.382 36.172 60.41 33.742ZM59.978 30.286V30.61C59.528 33.778 58.25 36.028 56.306 37.198C56.702 37.486 57.404 38.224 57.674 38.638C59.78 37.27 61.256 34.606 61.868 30.628L60.824 30.25L60.482 30.286H59.978ZM57.098 32.248C57.242 32.086 57.764 31.96 58.196 31.96H60.572L60.59 30.286H57.872L57.098 30.7V32.248ZM57.098 32.248C57.098 31.762 58.538 31.06 58.538 31.06C59.564 29.89 61.13 27.658 61.976 26.416L60.662 25.822L60.104 26.056V26.11C59.492 27.1 57.872 29.404 57.332 29.908C56.99 30.286 56.702 30.412 56.396 30.484C56.594 30.88 56.972 31.798 57.098 32.248ZM84.602 34.768V36.784H89.534V34.768H84.602ZM83.63 23.266V38.098H85.718V25.3H88.346V37.846H90.542V23.266H83.63ZM78.014 24.958V28.396C78.014 31.042 77.69 34.57 74.396 36.946C74.828 37.252 75.656 38.116 75.926 38.566C79.544 35.938 80.192 31.492 80.192 28.432V24.958H78.014ZM76.538 24.004V26.002H82.712V24.004H76.538ZM74.666 28.846V30.898H83.162V28.846H74.666ZM79.652 31.384L78.338 32.608C79.256 33.67 81.02 35.902 81.866 37.234L83.324 35.416C82.766 34.75 80.39 32.032 79.652 31.384ZM76.34 21.718C75.98 23.788 75.296 25.858 74.324 27.154C74.792 27.442 75.674 28.054 76.052 28.396C77.078 26.884 77.942 24.508 78.41 22.132L76.34 21.718Z" fill="#44444F"/>
<path d="M32.9236 27.7841C32.9436 25.3501 32.1416 23.1871 30.6656 21.6941C29.3416 20.3521 27.5496 19.6101 25.6196 19.6011H25.6066C23.6766 19.6111 21.8846 20.3511 20.5606 21.6931C19.0856 23.1881 18.2836 25.3511 18.3036 27.7851C18.3396 31.9181 16.3806 33.4781 16.3036 33.5381C16.0436 33.7311 15.9366 34.0681 16.0376 34.3761C16.1396 34.6841 16.4276 34.8911 16.7496 34.8911H21.4656C21.5756 37.1171 23.4056 38.8981 25.6596 38.8981C27.9136 38.8981 29.7426 37.1181 29.8536 34.8911H34.4786C34.7986 34.8911 35.0826 34.6851 35.1856 34.3811C35.2886 34.0771 35.1856 33.7381 34.9306 33.5431C34.8486 33.4791 32.8876 31.9181 32.9226 27.7831L32.9236 27.7841ZM25.6586 37.3981C24.2326 37.3981 23.0726 36.2881 22.9646 34.8901H28.3526C28.2446 36.2901 27.0846 37.3981 25.6586 37.3981ZM18.3686 33.3911C19.0706 32.2961 19.8256 30.4871 19.8026 27.7731C19.7856 25.7111 20.4166 23.9731 21.6276 22.7481C22.6706 21.6921 24.0856 21.1081 25.6136 21.1021C27.1406 21.1091 28.5566 21.6921 29.5986 22.7481C30.8086 23.9741 31.4386 25.7111 31.4216 27.7731C31.3996 30.4871 32.1536 32.2961 32.8586 33.3911H18.3686Z" fill="#44444F"/>
</svg>
